<svg width="1035" height="362" viewBox="0 0 1035 362" fill="none" xmlns="http://www.w3.org/2000/svg">
<path d="M0.732056 59.413H42.1191L101.625 40.405L120.925 59.413L169.978 40.405L223.855 44.026L250.392 12.3459L293.975 0.979004L348.605 45.72L406.396 111.911H503.697L610.483 37.326L778.715 168.935L781.931 225.054L832.894 258.544L917.681 358.556H0.732056V59.413Z" fill="#7B062F"/>
<path d="M781.931 225.054L784.859 274.353L832.894 258.544L781.931 225.054Z" fill="#6B0228"/>
<path d="M503.697 111.911L552.043 121.979L598.222 205.63L625.973 135.013L638.183 131.608L610.483 37.326L503.697 111.911Z" fill="#6B0228"/>
<path d="M326.516 140.355L310.233 77.959L359.084 126.897L326.516 140.355Z" fill="#6B0228"/>
<path d="M120.925 59.413L174.984 121.923L213.513 223.637L262.37 211.794L204.222 125.674L245.097 119.849L178.292 71.698L169.978 40.405L120.925 59.413Z" fill="#6B0228"/>
<path d="M0 39.8669L96.146 97.203L141.251 92.71L211.211 173.287L283.011 131.047L341.004 132.083L410.964 86.494L513.142 159.023L591.386 147.625L646.617 251.239L784.696 266.781L834.404 293.72L891.476 258.492L946.707 263.672L1034.16 361.098H0V39.8669Z" fill="#52042C"/>
<path d="M96.146 97.203L125.377 223.637L141.251 92.71L96.146 97.203Z" fill="#4A0428"/>
<path d="M211.211 173.287L303.271 307.146L296.982 213.43L326.631 231.07L283.011 131.047L211.211 173.287Z" fill="#4A0428"/>
<path d="M341.004 132.083L422.765 254.224V179.768L438.937 191.199L410.964 86.494L341.004 132.083Z" fill="#4A0428"/>
<path d="M513.142 159.023L561.127 240.993L578.198 338.017L615.615 293.916L589.801 205.63L591.386 147.625L513.142 159.023Z" fill="#4A0428"/>
<path d="M891.476 258.492L930.391 329.197V361.098L884.57 358.966L834.404 293.72L891.476 258.492Z" fill="#4A0428"/>
</svg>
