<svg width="1034" height="352" viewBox="0 0 1034 352" fill="none" xmlns="http://www.w3.org/2000/svg">
<path d="M1032.54 57.791H991.188L931.737 39.311L912.455 57.791L863.448 39.311L809.62 42.8311L783.107 12.03L739.565 0.979004L684.985 44.479L627.247 108.832H530.036L423.348 36.317L255.272 164.273L252.059 218.834L201.143 251.395L116.434 348.631H1032.54V57.791Z" fill="#7B062F"/>
<path d="M252.059 218.834L249.133 266.765L201.143 251.395L252.059 218.834Z" fill="#6B0228"/>
<path d="M530.036 108.832L481.734 118.621L435.598 199.95L407.873 131.293L395.675 127.982L423.348 36.317L530.036 108.832Z" fill="#6B0228"/>
<path d="M707.053 136.486L723.322 75.823L674.516 123.402L707.053 136.486Z" fill="#6B0228"/>
<path d="M912.455 57.791L858.445 118.566L819.952 217.457L771.14 205.942L829.235 122.213L788.397 116.55L855.141 69.735L863.448 39.311L912.455 57.791Z" fill="#6B0228"/>
<path d="M1034 38.441L937.875 94.248L892.779 89.875L822.835 168.301L751.05 127.189L693.069 128.197L623.125 83.823L520.969 154.418L442.741 143.325L387.522 244.174L249.473 259.301L199.776 285.522L142.716 251.234L87.496 256.276L0.06604 351.102H1034V38.441Z" fill="#52042C"/>
<path d="M937.211 94.533L908.007 217.457L892.147 90.1639L937.211 94.533Z" fill="#4A0428"/>
<path d="M822.252 168.504L730.277 298.648L736.561 207.533L706.939 224.684L750.518 127.437L822.252 168.504Z" fill="#4A0428"/>
<path d="M692.579 128.444L610.893 247.195V174.805L594.736 185.919L622.684 84.12L692.579 128.444Z" fill="#4A0428"/>
<path d="M520.6 154.636L472.659 234.331L455.604 328.662L418.222 285.785L444.012 199.95L442.428 143.555L520.6 154.636Z" fill="#4A0428"/>
<path d="M142.615 251.344L103.735 320.087V351.102L149.514 349.029L199.635 285.595L142.615 251.344Z" fill="#4A0428"/>
</svg>
