<svg width="2581" height="1168" viewBox="0 0 2581 1168" fill="none" xmlns="http://www.w3.org/2000/svg">
<g opacity="0.4">
<path d="M377.534 1133.27C377.534 1133.62 377.534 1133.97 377.534 1134.33" stroke="white" stroke-width="2.7185" stroke-miterlimit="10" stroke-linecap="round" stroke-linejoin="round"/>
<path d="M432.891 1017.89C433.226 1017.54 433.562 1017.19 433.897 1016.83" stroke="white" stroke-width="2.7185" stroke-miterlimit="10" stroke-linecap="round" stroke-linejoin="round"/>
<path d="M567.761 1095.16C568.096 1095.16 568.432 1095.16 568.767 1095.16" stroke="white" stroke-width="2.7185" stroke-miterlimit="10" stroke-linecap="round" stroke-linejoin="round"/>
<path d="M528.508 987.196C528.508 987.549 528.508 987.902 528.508 988.254" stroke="white" stroke-width="2.7185" stroke-miterlimit="10" stroke-linecap="round" stroke-linejoin="round"/>
<path d="M458.882 874.961C458.969 874.444 457.939 874.483 458.06 874.992" stroke="white" stroke-width="2.7185" stroke-miterlimit="10" stroke-linecap="round" stroke-linejoin="round"/>
<path d="M592.923 910.983C592.923 910.63 592.923 910.277 592.923 909.925" stroke="white" stroke-width="2.7185" stroke-miterlimit="10" stroke-linecap="round" stroke-linejoin="round"/>
<path d="M525.488 736.33C525.152 736.683 524.817 737.036 524.482 737.388" stroke="white" stroke-width="2.7185" stroke-miterlimit="10" stroke-linecap="round" stroke-linejoin="round"/>
<path d="M234.612 888.755C234.612 889.108 234.612 889.461 234.612 889.813" stroke="white" stroke-width="2.7185" stroke-miterlimit="10" stroke-linecap="round" stroke-linejoin="round"/>
<path d="M47.405 863.351C47.07 863.704 46.734 864.057 46.399 864.409" stroke="white" stroke-width="2.7185" stroke-miterlimit="10" stroke-linecap="round" stroke-linejoin="round"/>
<path d="M102.762 948.031C102.762 947.678 102.762 947.325 102.762 946.972" stroke="white" stroke-width="2.7185" stroke-miterlimit="10" stroke-linecap="round" stroke-linejoin="round"/>
<path d="M57.47 1084.58C57.47 1084.93 57.47 1085.28 57.47 1085.64" stroke="white" stroke-width="2.7185" stroke-miterlimit="10" stroke-linecap="round" stroke-linejoin="round"/>
<path d="M28.2811 1115.27C27.9461 1115.98 27.61 1116.69 27.274 1117.39" stroke="white" stroke-width="2.7185" stroke-miterlimit="10" stroke-linecap="round" stroke-linejoin="round"/>
<path d="M2.11304 1075.05C2.11304 1075.4 2.11304 1075.76 2.11304 1076.11" stroke="white" stroke-width="2.7185" stroke-miterlimit="10" stroke-linecap="round" stroke-linejoin="round"/>
<path d="M146.041 1095.16C146.376 1095.16 146.712 1095.16 147.047 1095.16" stroke="white" stroke-width="2.7185" stroke-miterlimit="10" stroke-linecap="round" stroke-linejoin="round"/>
<path d="M118.396 826.469C118.396 827.094 118.396 827.719 118.396 828.344" stroke="white" stroke-width="2.7185" stroke-miterlimit="10" stroke-linecap="round" stroke-linejoin="round"/>
<path d="M186.153 646.448C186.153 647.073 186.153 647.698 186.153 648.323" stroke="white" stroke-width="2.7185" stroke-miterlimit="10" stroke-linecap="round" stroke-linejoin="round"/>
<path d="M246.777 316.41C247.371 316.41 247.966 316.41 248.56 316.41" stroke="white" stroke-width="2.7185" stroke-miterlimit="10" stroke-linecap="round" stroke-linejoin="round"/>
<path d="M392.989 267.654C392.395 267.654 391.8 267.654 391.206 267.654" stroke="white" stroke-width="2.7185" stroke-miterlimit="10" stroke-linecap="round" stroke-linejoin="round"/>
<path d="M448.264 337.037C447.075 337.037 445.887 337.037 444.698 337.037" stroke="white" stroke-width="2.7185" stroke-miterlimit="10" stroke-linecap="round" stroke-linejoin="round"/>
<path d="M100.565 337.037C100.565 337.662 100.565 338.287 100.565 338.912" stroke="white" stroke-width="2.7185" stroke-miterlimit="10" stroke-linecap="round" stroke-linejoin="round"/>
<path d="M89.8671 310.784C89.8671 310.159 89.8671 309.534 89.8671 308.909" stroke="white" stroke-width="2.7185" stroke-miterlimit="10" stroke-linecap="round" stroke-linejoin="round"/>
<path d="M120.179 115.762C120.773 116.387 121.368 117.012 121.962 117.637" stroke="white" stroke-width="2.7185" stroke-miterlimit="10" stroke-linecap="round" stroke-linejoin="round"/>
<path d="M27.459 89.509C27.459 88.884 27.459 88.259 27.459 87.634" stroke="white" stroke-width="2.7185" stroke-miterlimit="10" stroke-linecap="round" stroke-linejoin="round"/>
<path d="M902.948 329.537C903.542 329.537 904.137 329.537 904.731 329.537" stroke="white" stroke-width="2.7185" stroke-miterlimit="10" stroke-linecap="round" stroke-linejoin="round"/>
<path d="M719.292 635.197C719.292 635.822 719.292 636.447 719.292 637.072" stroke="white" stroke-width="2.7185" stroke-miterlimit="10" stroke-linecap="round" stroke-linejoin="round"/>
<path d="M601.609 592.067C602.203 592.067 602.798 592.067 603.392 592.067" stroke="white" stroke-width="2.7185" stroke-miterlimit="10" stroke-linecap="round" stroke-linejoin="round"/>
<path d="M831.625 1053.37C832.219 1052.75 832.814 1052.12 833.408 1051.5" stroke="white" stroke-width="2.7185" stroke-miterlimit="10" stroke-linecap="round" stroke-linejoin="round"/>
<path d="M902.948 1104C902.948 1104.63 902.948 1105.25 902.948 1105.88" stroke="white" stroke-width="2.7185" stroke-miterlimit="10" stroke-linecap="round" stroke-linejoin="round"/>
<path d="M965.356 890.227C965.95 890.227 966.545 890.227 967.139 890.227" stroke="white" stroke-width="2.7185" stroke-miterlimit="10" stroke-linecap="round" stroke-linejoin="round"/>
<path d="M1006.37 794.591C1005.77 794.591 1005.18 794.591 1004.58 794.591" stroke="white" stroke-width="2.7185" stroke-miterlimit="10" stroke-linecap="round" stroke-linejoin="round"/>
<path d="M1232.82 1013.99C1231.03 1013.99 1229.25 1013.99 1227.47 1013.99" stroke="white" stroke-width="2.7185" stroke-miterlimit="10" stroke-linecap="round" stroke-linejoin="round"/>
<path d="M1083.04 1025.24C1083.63 1025.24 1084.23 1025.24 1084.82 1025.24" stroke="white" stroke-width="2.7185" stroke-miterlimit="10" stroke-linecap="round" stroke-linejoin="round"/>
<path d="M1512.76 895.853C1512.17 896.478 1511.57 897.103 1510.98 897.728" stroke="white" stroke-width="2.7185" stroke-miterlimit="10" stroke-linecap="round" stroke-linejoin="round"/>
<path d="M1616.18 1015.87C1615.58 1015.24 1614.99 1014.62 1614.4 1013.99" stroke="white" stroke-width="2.7185" stroke-miterlimit="10" stroke-linecap="round" stroke-linejoin="round"/>
<path d="M1847.98 689.579C1847.98 690.204 1847.98 690.829 1847.98 691.454" stroke="white" stroke-width="2.7185" stroke-miterlimit="10" stroke-linecap="round" stroke-linejoin="round"/>
<path d="M1921.08 670.826C1921.68 670.826 1922.27 670.826 1922.87 670.826" stroke="white" stroke-width="2.7185" stroke-miterlimit="10" stroke-linecap="round" stroke-linejoin="round"/>
<path d="M1819.45 599.568C1818.85 599.568 1818.26 599.568 1817.67 599.568" stroke="white" stroke-width="2.7185" stroke-miterlimit="10" stroke-linecap="round" stroke-linejoin="round"/>
<path d="M1903.25 522.684C1903.25 523.309 1903.25 523.934 1903.25 524.559" stroke="white" stroke-width="2.7185" stroke-miterlimit="10" stroke-linecap="round" stroke-linejoin="round"/>
<path d="M1826.58 254.528C1828.05 254.528 1828.05 254.528 1826.58 254.528" stroke="white" stroke-width="2.7185" stroke-miterlimit="10" stroke-linecap="round" stroke-linejoin="round"/>
<path d="M1758.82 284.531C1760.3 284.531 1760.3 284.531 1758.82 284.531" stroke="white" stroke-width="2.7185" stroke-miterlimit="10" stroke-linecap="round" stroke-linejoin="round"/>
<path d="M1682.15 404.545C1682.15 406.093 1682.15 406.093 1682.15 404.545" stroke="white" stroke-width="2.7185" stroke-miterlimit="10" stroke-linecap="round" stroke-linejoin="round"/>
<path d="M1828.36 3.24896C1827.77 3.24896 1827.18 3.24896 1826.58 3.24896" stroke="white" stroke-width="2.7185" stroke-miterlimit="10" stroke-linecap="round" stroke-linejoin="round"/>
<path d="M1938.91 207.647C1938.32 207.647 1937.73 207.647 1937.13 207.647" stroke="white" stroke-width="2.7185" stroke-miterlimit="10" stroke-linecap="round" stroke-linejoin="round"/>
<path d="M2111.87 250.777C2111.87 251.402 2111.87 252.027 2111.87 252.652" stroke="white" stroke-width="2.7185" stroke-miterlimit="10" stroke-linecap="round" stroke-linejoin="round"/>
<path d="M2450.66 1.37299C2450.06 1.37299 2449.47 1.37299 2448.87 1.37299" stroke="white" stroke-width="2.7185" stroke-miterlimit="10" stroke-linecap="round" stroke-linejoin="round"/>
<path d="M2516.63 142.015C2516.63 142.64 2516.63 143.265 2516.63 143.89" stroke="white" stroke-width="2.7185" stroke-miterlimit="10" stroke-linecap="round" stroke-linejoin="round"/>
<path d="M2579.04 97.009C2579.04 96.384 2579.04 95.759 2579.04 95.134" stroke="white" stroke-width="2.7185" stroke-miterlimit="10" stroke-linecap="round" stroke-linejoin="round"/>
<path d="M2475.62 293.907C2476.21 294.532 2476.81 295.157 2477.4 295.782" stroke="white" stroke-width="2.7185" stroke-miterlimit="10" stroke-linecap="round" stroke-linejoin="round"/>
<path d="M2516.63 383.918C2517.22 383.918 2517.82 383.918 2518.41 383.918" stroke="white" stroke-width="2.7185" stroke-miterlimit="10" stroke-linecap="round" stroke-linejoin="round"/>
<path d="M2256.3 633.322C2255.11 633.322 2253.92 633.322 2252.74 633.322" stroke="white" stroke-width="2.7185" stroke-miterlimit="10" stroke-linecap="round" stroke-linejoin="round"/>
<path d="M2094.04 642.698C2093.45 643.323 2092.85 643.948 2092.26 644.573" stroke="white" stroke-width="2.7185" stroke-miterlimit="10" stroke-linecap="round" stroke-linejoin="round"/>
<path d="M2054.81 554.563C2054.22 553.938 2053.63 553.313 2053.03 552.688" stroke="white" stroke-width="2.7185" stroke-miterlimit="10" stroke-linecap="round" stroke-linejoin="round"/>
<path d="M2388.25 695.204C2387.66 695.204 2387.06 695.204 2386.47 695.204" stroke="white" stroke-width="2.7185" stroke-miterlimit="10" stroke-linecap="round" stroke-linejoin="round"/>
<path d="M2325.84 734.584C2325.25 734.584 2324.65 734.584 2324.06 734.584" stroke="white" stroke-width="2.7185" stroke-miterlimit="10" stroke-linecap="round" stroke-linejoin="round"/>
<path d="M2484.53 802.092C2483.94 802.092 2483.35 802.092 2482.75 802.092" stroke="white" stroke-width="2.7185" stroke-miterlimit="10" stroke-linecap="round" stroke-linejoin="round"/>
<path d="M1976.36 832.095C1976.36 833.643 1976.36 833.643 1976.36 832.095" stroke="white" stroke-width="2.7185" stroke-miterlimit="10" stroke-linecap="round" stroke-linejoin="round"/>
<path d="M2088.69 1055.25C2088.1 1055.25 2087.5 1055.25 2086.91 1055.25" stroke="white" stroke-width="2.7185" stroke-miterlimit="10" stroke-linecap="round" stroke-linejoin="round"/>
<path d="M1942.48 1120.88C1942.48 1120.25 1942.48 1119.63 1942.48 1119" stroke="white" stroke-width="2.7185" stroke-miterlimit="10" stroke-linecap="round" stroke-linejoin="round"/>
<path d="M2165.36 1143.38C2164.77 1142.76 2164.18 1142.13 2163.58 1141.51" stroke="white" stroke-width="2.7185" stroke-miterlimit="10" stroke-linecap="round" stroke-linejoin="round"/>
<path d="M2304.44 1160.26C2304.44 1160.88 2304.44 1161.51 2304.44 1162.13" stroke="white" stroke-width="2.7185" stroke-miterlimit="10" stroke-linecap="round" stroke-linejoin="round"/>
<path d="M2536.24 1074C2536.84 1074 2537.43 1074 2538.03 1074" stroke="white" stroke-width="2.7185" stroke-miterlimit="10" stroke-linecap="round" stroke-linejoin="round"/>
<path d="M2475.62 1164.01C2475.02 1164.63 2474.43 1165.26 2473.84 1165.88" stroke="white" stroke-width="2.7185" stroke-miterlimit="10" stroke-linecap="round" stroke-linejoin="round"/>
</g>
</svg>
