<svg width="392" height="129" viewBox="0 0 392 129" fill="none" xmlns="http://www.w3.org/2000/svg">
<g opacity="0.4">
<path d="M389.65 119.588C357.845 109.173 321.285 115.255 287.981 107.694C296.467 100.796 292.966 85.711 283.634 80.009C274.302 74.307 262.194 75.867 251.974 79.761C254.134 65.223 239.418 52.185 224.722 51.934C210.026 51.683 196.68 60.941 187.143 72.124C185.523 41.799 161.029 16.088 132.454 5.80799C122.342 2.16999 111.551 0.109991 100.831 0.867991C78.964 2.41499 58.8829 15.992 46.9909 34.408C35.0999 52.824 30.9089 75.546 32.6679 97.396C27.6159 92.345 19.9541 89.8 13.0281 91.553C6.10206 93.306 0.386066 99.639 0.0380657 106.774C-0.309934 113.91 8.50387 127.974 15.6089 128.718C15.6089 128.718 262.928 130.07 388.792 125.787C392.352 125.667 393.034 120.696 389.65 119.588Z" fill="white"/>
</g>
</svg>
