<svg width="2810" height="1272" viewBox="0 0 2810 1272" fill="none" xmlns="http://www.w3.org/2000/svg">
<path d="M2398.79 37.872C2398.79 37.488 2398.79 37.104 2398.79 36.719" stroke="white" stroke-width="2.9602" stroke-miterlimit="10" stroke-linecap="round" stroke-linejoin="round"/>
<path d="M2338.51 163.507C2338.15 163.891 2337.78 164.275 2337.42 164.66" stroke="white" stroke-width="2.9602" stroke-miterlimit="10" stroke-linecap="round" stroke-linejoin="round"/>
<path d="M2191.65 79.366C2191.29 79.366 2190.92 79.366 2190.56 79.366" stroke="white" stroke-width="2.9602" stroke-miterlimit="10" stroke-linecap="round" stroke-linejoin="round"/>
<path d="M2234.4 196.933C2234.4 196.549 2234.4 196.165 2234.4 195.78" stroke="white" stroke-width="2.9602" stroke-miterlimit="10" stroke-linecap="round" stroke-linejoin="round"/>
<path d="M2310.21 319.146C2310.12 319.709 2311.24 319.667 2311.11 319.112" stroke="white" stroke-width="2.9602" stroke-miterlimit="10" stroke-linecap="round" stroke-linejoin="round"/>
<path d="M2164.25 279.921C2164.25 280.305 2164.25 280.689 2164.25 281.074" stroke="white" stroke-width="2.9602" stroke-miterlimit="10" stroke-linecap="round" stroke-linejoin="round"/>
<path d="M2237.68 470.102C2238.05 469.718 2238.42 469.334 2238.78 468.949" stroke="white" stroke-width="2.9602" stroke-miterlimit="10" stroke-linecap="round" stroke-linejoin="round"/>
<path d="M2554.42 304.126C2554.42 303.742 2554.42 303.358 2554.42 302.973" stroke="white" stroke-width="2.9602" stroke-miterlimit="10" stroke-linecap="round" stroke-linejoin="round"/>
<path d="M2758.27 331.789C2758.64 331.405 2759 331.021 2759.37 330.636" stroke="white" stroke-width="2.9602" stroke-miterlimit="10" stroke-linecap="round" stroke-linejoin="round"/>
<path d="M2697.99 239.58C2697.99 239.964 2697.99 240.348 2697.99 240.733" stroke="white" stroke-width="2.9602" stroke-miterlimit="10" stroke-linecap="round" stroke-linejoin="round"/>
<path d="M2747.31 90.892C2747.31 90.508 2747.31 90.124 2747.31 89.739" stroke="white" stroke-width="2.9602" stroke-miterlimit="10" stroke-linecap="round" stroke-linejoin="round"/>
<path d="M2779.1 57.467C2779.46 56.699 2779.83 55.93 2780.19 55.162" stroke="white" stroke-width="2.9602" stroke-miterlimit="10" stroke-linecap="round" stroke-linejoin="round"/>
<path d="M2807.59 101.266C2807.59 100.882 2807.59 100.498 2807.59 100.113" stroke="white" stroke-width="2.9602" stroke-miterlimit="10" stroke-linecap="round" stroke-linejoin="round"/>
<path d="M2650.87 79.366C2650.5 79.366 2650.14 79.366 2649.77 79.366" stroke="white" stroke-width="2.9602" stroke-miterlimit="10" stroke-linecap="round" stroke-linejoin="round"/>
<path d="M2680.97 371.949C2680.97 371.268 2680.97 370.588 2680.97 369.907" stroke="white" stroke-width="2.9602" stroke-miterlimit="10" stroke-linecap="round" stroke-linejoin="round"/>
<path d="M2607.19 567.975C2607.19 567.294 2607.19 566.614 2607.19 565.933" stroke="white" stroke-width="2.9602" stroke-miterlimit="10" stroke-linecap="round" stroke-linejoin="round"/>
<path d="M2541.17 927.357C2540.53 927.357 2539.88 927.357 2539.23 927.357" stroke="white" stroke-width="2.9602" stroke-miterlimit="10" stroke-linecap="round" stroke-linejoin="round"/>
<path d="M2381.96 980.447C2382.61 980.447 2383.26 980.447 2383.91 980.447" stroke="white" stroke-width="2.9602" stroke-miterlimit="10" stroke-linecap="round" stroke-linejoin="round"/>
<path d="M2321.77 904.895C2323.07 904.895 2324.36 904.895 2325.66 904.895" stroke="white" stroke-width="2.9602" stroke-miterlimit="10" stroke-linecap="round" stroke-linejoin="round"/>
<path d="M2700.39 904.895C2700.39 904.214 2700.39 903.534 2700.39 902.853" stroke="white" stroke-width="2.9602" stroke-miterlimit="10" stroke-linecap="round" stroke-linejoin="round"/>
<path d="M2712.04 933.483C2712.04 934.164 2712.04 934.844 2712.04 935.525" stroke="white" stroke-width="2.9602" stroke-miterlimit="10" stroke-linecap="round" stroke-linejoin="round"/>
<path d="M2679.03 1145.84C2678.38 1145.16 2677.73 1144.48 2677.09 1143.8" stroke="white" stroke-width="2.9602" stroke-miterlimit="10" stroke-linecap="round" stroke-linejoin="round"/>
<path d="M2779.99 1174.43C2779.99 1175.11 2779.99 1175.79 2779.99 1176.47" stroke="white" stroke-width="2.9602" stroke-miterlimit="10" stroke-linecap="round" stroke-linejoin="round"/>
<path d="M1826.67 913.063C1826.02 913.063 1825.37 913.063 1824.72 913.063" stroke="white" stroke-width="2.9602" stroke-miterlimit="10" stroke-linecap="round" stroke-linejoin="round"/>
<path d="M2026.65 580.227C2026.65 579.546 2026.65 578.866 2026.65 578.185" stroke="white" stroke-width="2.9602" stroke-miterlimit="10" stroke-linecap="round" stroke-linejoin="round"/>
<path d="M2154.8 627.192C2154.15 627.192 2153.5 627.192 2152.85 627.192" stroke="white" stroke-width="2.9602" stroke-miterlimit="10" stroke-linecap="round" stroke-linejoin="round"/>
<path d="M1904.33 124.874C1903.68 125.555 1903.03 126.235 1902.39 126.916" stroke="white" stroke-width="2.9602" stroke-miterlimit="10" stroke-linecap="round" stroke-linejoin="round"/>
<path d="M1826.67 69.742C1826.67 69.061 1826.67 68.381 1826.67 67.7" stroke="white" stroke-width="2.9602" stroke-miterlimit="10" stroke-linecap="round" stroke-linejoin="round"/>
<path d="M1758.71 302.523C1758.06 302.523 1757.41 302.523 1756.77 302.523" stroke="white" stroke-width="2.9602" stroke-miterlimit="10" stroke-linecap="round" stroke-linejoin="round"/>
<path d="M1714.05 406.662C1714.7 406.662 1715.35 406.662 1715.99 406.662" stroke="white" stroke-width="2.9602" stroke-miterlimit="10" stroke-linecap="round" stroke-linejoin="round"/>
<path d="M1467.47 167.755C1469.41 167.755 1471.35 167.755 1473.29 167.755" stroke="white" stroke-width="2.9602" stroke-miterlimit="10" stroke-linecap="round" stroke-linejoin="round"/>
<path d="M1630.56 155.503C1629.92 155.503 1629.27 155.503 1628.62 155.503" stroke="white" stroke-width="2.9602" stroke-miterlimit="10" stroke-linecap="round" stroke-linejoin="round"/>
<path d="M1162.64 296.397C1163.28 295.716 1163.93 295.036 1164.58 294.355" stroke="white" stroke-width="2.9602" stroke-miterlimit="10" stroke-linecap="round" stroke-linejoin="round"/>
<path d="M1050.02 165.713C1050.67 166.394 1051.32 167.074 1051.97 167.755" stroke="white" stroke-width="2.9602" stroke-miterlimit="10" stroke-linecap="round" stroke-linejoin="round"/>
<path d="M797.615 521.01C797.615 520.329 797.615 519.649 797.615 518.968" stroke="white" stroke-width="2.9602" stroke-miterlimit="10" stroke-linecap="round" stroke-linejoin="round"/>
<path d="M718.01 541.43C717.363 541.43 716.716 541.43 716.068 541.43" stroke="white" stroke-width="2.9602" stroke-miterlimit="10" stroke-linecap="round" stroke-linejoin="round"/>
<path d="M828.681 619.024C829.328 619.024 829.975 619.024 830.623 619.024" stroke="white" stroke-width="2.9602" stroke-miterlimit="10" stroke-linecap="round" stroke-linejoin="round"/>
<path d="M737.426 702.743C737.426 702.062 737.426 701.382 737.426 700.701" stroke="white" stroke-width="2.9602" stroke-miterlimit="10" stroke-linecap="round" stroke-linejoin="round"/>
<path d="M820.915 994.741C819.312 994.741 819.312 994.741 820.915 994.741" stroke="white" stroke-width="2.9602" stroke-miterlimit="10" stroke-linecap="round" stroke-linejoin="round"/>
<path d="M894.696 962.07C893.093 962.07 893.093 962.07 894.696 962.07" stroke="white" stroke-width="2.9602" stroke-miterlimit="10" stroke-linecap="round" stroke-linejoin="round"/>
<path d="M978.185 831.385C978.185 829.7 978.185 829.7 978.185 831.385" stroke="white" stroke-width="2.9602" stroke-miterlimit="10" stroke-linecap="round" stroke-linejoin="round"/>
<path d="M818.973 1268.36C819.62 1268.36 820.267 1268.36 820.915 1268.36" stroke="white" stroke-width="2.9602" stroke-miterlimit="10" stroke-linecap="round" stroke-linejoin="round"/>
<path d="M698.594 1045.79C699.241 1045.79 699.888 1045.79 700.536 1045.79" stroke="white" stroke-width="2.9602" stroke-miterlimit="10" stroke-linecap="round" stroke-linejoin="round"/>
<path d="M510.258 998.825C510.258 998.144 510.258 997.464 510.258 996.783" stroke="white" stroke-width="2.9602" stroke-miterlimit="10" stroke-linecap="round" stroke-linejoin="round"/>
<path d="M141.354 1270.4C142.001 1270.4 142.648 1270.4 143.296 1270.4" stroke="white" stroke-width="2.9602" stroke-miterlimit="10" stroke-linecap="round" stroke-linejoin="round"/>
<path d="M69.514 1117.26C69.514 1116.58 69.514 1115.9 69.514 1115.21" stroke="white" stroke-width="2.9602" stroke-miterlimit="10" stroke-linecap="round" stroke-linejoin="round"/>
<path d="M1.55798 1166.26C1.55798 1166.94 1.55798 1167.62 1.55798 1168.31" stroke="white" stroke-width="2.9602" stroke-miterlimit="10" stroke-linecap="round" stroke-linejoin="round"/>
<path d="M114.171 951.86C113.524 951.179 112.877 950.499 112.229 949.818" stroke="white" stroke-width="2.9602" stroke-miterlimit="10" stroke-linecap="round" stroke-linejoin="round"/>
<path d="M69.514 853.847C68.867 853.847 68.22 853.847 67.572 853.847" stroke="white" stroke-width="2.9602" stroke-miterlimit="10" stroke-linecap="round" stroke-linejoin="round"/>
<path d="M352.988 582.269C354.282 582.269 355.577 582.269 356.871 582.269" stroke="white" stroke-width="2.9602" stroke-miterlimit="10" stroke-linecap="round" stroke-linejoin="round"/>
<path d="M529.674 572.059C530.321 571.378 530.968 570.698 531.616 570.017" stroke="white" stroke-width="2.9602" stroke-miterlimit="10" stroke-linecap="round" stroke-linejoin="round"/>
<path d="M572.39 668.03C573.037 668.711 573.684 669.391 574.332 670.072" stroke="white" stroke-width="2.9602" stroke-miterlimit="10" stroke-linecap="round" stroke-linejoin="round"/>
<path d="M209.31 514.885C209.957 514.885 210.604 514.885 211.252 514.885" stroke="white" stroke-width="2.9602" stroke-miterlimit="10" stroke-linecap="round" stroke-linejoin="round"/>
<path d="M277.266 472.004C277.913 472.004 278.56 472.004 279.208 472.004" stroke="white" stroke-width="2.9602" stroke-miterlimit="10" stroke-linecap="round" stroke-linejoin="round"/>
<path d="M104.463 398.494C105.11 398.494 105.757 398.494 106.405 398.494" stroke="white" stroke-width="2.9602" stroke-miterlimit="10" stroke-linecap="round" stroke-linejoin="round"/>
<path d="M657.82 365.823C657.82 364.137 657.82 364.137 657.82 365.823" stroke="white" stroke-width="2.9602" stroke-miterlimit="10" stroke-linecap="round" stroke-linejoin="round"/>
<path d="M535.499 122.832C536.146 122.832 536.793 122.832 537.441 122.832" stroke="white" stroke-width="2.9602" stroke-miterlimit="10" stroke-linecap="round" stroke-linejoin="round"/>
<path d="M694.711 51.364C694.711 52.045 694.711 52.725 694.711 53.406" stroke="white" stroke-width="2.9602" stroke-miterlimit="10" stroke-linecap="round" stroke-linejoin="round"/>
<path d="M452.01 26.861C452.657 27.542 453.304 28.222 453.952 28.903" stroke="white" stroke-width="2.9602" stroke-miterlimit="10" stroke-linecap="round" stroke-linejoin="round"/>
<path d="M300.565 8.48298C300.565 7.80198 300.565 7.12198 300.565 6.44098" stroke="white" stroke-width="2.9602" stroke-miterlimit="10" stroke-linecap="round" stroke-linejoin="round"/>
<path d="M48.157 102.413C47.51 102.413 46.863 102.413 46.215 102.413" stroke="white" stroke-width="2.9602" stroke-miterlimit="10" stroke-linecap="round" stroke-linejoin="round"/>
<path d="M114.171 4.39997C114.818 3.71897 115.465 3.03897 116.113 2.35797" stroke="white" stroke-width="2.9602" stroke-miterlimit="10" stroke-linecap="round" stroke-linejoin="round"/>
</svg>
