<svg width="476" height="154" viewBox="0 0 476 154" fill="none" xmlns="http://www.w3.org/2000/svg">
<g opacity="0.4">
<path d="M378.185 136.612C372.561 112.776 340.861 99.602 319.999 112.431C319.663 100.775 312.161 89.6211 301.492 84.9151C290.824 80.2091 277.527 82.189 268.693 89.8C271.929 57.33 252.101 24.546 222.951 9.88203C193.801 -4.78197 157.281 -1.88796 129.244 14.806C101.207 31.5 81.7009 60.834 74.2149 92.594C59.2459 75.585 30.442 73.2581 12.937 87.6441C-4.56802 102.03 -3.03202 135.569 10.755 153.549L474.283 151.071C483.03 140.17 410.323 132.487 378.185 136.612Z" fill="white"/>
</g>
</svg>
