<svg width="2850" height="789" viewBox="0 0 2850 789" fill="none" xmlns="http://www.w3.org/2000/svg">
<path d="M0.732056 117.492L216.559 233.405L286.535 175.449L415.2 260.361L611.583 174.101L794.423 260.361L936.631 163.318L963.719 188.927L1049.49 117.492L1157.31 177.262L1731 250.045L1887.25 161.364L1915.1 176.144L1980.07 117.492L2024.94 174.297L2054.34 163.212L2185.84 246.349L2304.96 176.144L2345.18 209.795H2380.77L2448.84 260.361L2560.23 209.795L2602 227.874L2762.89 163.212L2792.29 188.927L2850 133.651V630.631H0.732056V117.492Z" fill="#F9604E"/>
<path d="M286.535 183.449L289.875 337.036L186.846 260.242L286.535 183.449Z" fill="#F25341"/>
<path d="M415.2 268.361L524.786 332.828L584.375 254.177H597.52L601.026 214.573L615.047 223.992L611.583 182.101L415.2 268.361Z" fill="#F25341"/>
<path d="M1049.49 125.492L1057.45 199.441H1045.29L1057.45 314.974L1031.19 280.14L963.719 196.927L1049.49 125.492Z" fill="#F25341"/>
<path d="M936.631 171.318L932.019 245.012H911.114L916.834 337.036L811.452 255.756L936.631 171.318Z" fill="#F25341"/>
<path d="M2602 235.874L2652.19 257.219L2677.19 323.791L2743.07 283.848L2735.3 234.222L2748.82 245.115V199.927L2763.34 207.189L2762.89 171.212L2602 235.874Z" fill="#F25341"/>
<path d="M2560.23 217.795L2564.5 265.034H2550.19L2559.73 300.246L2550.19 297.657L2566.66 357.206L2450.02 298.174L2471.7 256.749L2560.23 217.795Z" fill="#F25341"/>
<path d="M2345.18 217.795L2362.2 231.965L2373.48 228.858L2379.55 243.615L2380.77 217.795H2345.18Z" fill="#F25341"/>
<path d="M2304.96 184.144L2302.77 235.78H2288.11L2296.53 295.301L2283.92 287.798L2299.83 369.827L2083.9 316.238L2304.96 184.144Z" fill="#F25341"/>
<path d="M2024.94 182.297L2060.18 232.074L2054.33 171.212L2024.94 182.297Z" fill="#F25341"/>
<path d="M1887.25 169.364L1854.24 215.337L1837.1 217.926L1828.03 297.667L1742.15 252.169L1887.25 169.364Z" fill="#F25341"/>
<path d="M1980.07 125.492L1995.67 207.693L1975.35 192.76L1995.67 310.36L1955.39 208.594L1915.1 184.144L1980.07 125.492Z" fill="#F25341"/>
<path d="M1014.78 269.486L1266.44 106.731L1343.29 95.569L1450.26 0.0750122L1597.73 150.138L1628.88 135.255L1854.24 303.921L1425.37 489.95L1014.78 269.486Z" fill="#FF745D"/>
<path d="M1696.5 367.899L1586.81 258.497L1629 388.052" fill="#ED5D45"/>
<path d="M1450.26 0.0750122L1343.29 95.569L1266.44 106.731L1014.78 269.486L1373.75 475.919L1405.16 237.997L1478.76 290.979L1439.51 92.533L1471.4 115.97L1450.26 0.0750122Z" fill="#ED5D45"/>
<path d="M0 286.58L51.987 230.458L78.423 251.504L190.038 171.997L228.222 210.581L250.741 190.704L345.712 312.303L382.917 292.427L454.39 342.703L571.88 257.35L588.525 272.55L639.437 233.966L718.743 294.765L807.793 235.487L895.957 295.934L1040.86 230.458L1097.65 288.919L1127.02 279.565L1235.7 375.441L1286.61 349.718L1438.37 436.241L1521.59 363.749L1546.07 371.934L1632.23 315.811L1732.09 338.026L1820.21 255.011L1831.96 262.027L1874.06 205.904L1928.89 263.196L1970.01 246.827L1991.55 260.858L2045.4 209.412L2117.85 304.119L2146.25 281.904L2173.66 292.427L2203.03 269.042L2301.92 353.226L2371.44 264.365L2458.57 220.266L2555.5 334.519L2605.44 287.75L2668.1 304.119L2734.67 258.519L2849.27 384.533V788.841H0V286.58Z" fill="#DB2E3C"/>
<path d="M2668.1 304.119L2714.19 311.516L2730.49 287.75L2740.56 299.633L2734.67 258.519L2668.1 304.119Z" fill="#CC2330"/>
<path d="M2555.5 334.519L2613.02 397.401L2606.31 349.914L2616.86 354.459L2605.44 287.75L2555.5 334.519Z" fill="#CC2330"/>
<path d="M2301.93 353.236L2476.16 512.474L2454.73 372.308L2473.02 384.543L2446.68 289.981L2463.51 304.296L2458.58 220.276L2371.44 264.375L2301.93 353.236Z" fill="#CC2330"/>
<path d="M2064.75 410.244L2232.41 595.7L2251.82 638.631H2335.64L2251.82 540.906L2064.75 410.244Z" fill="#CC2330"/>
<path d="M2118.58 301.648L2144.32 336.784L2153.09 319.216L2146.98 279.433L2118.58 301.648Z" fill="#CC2330"/>
<path d="M1992.28 258.387L2034.05 287.5L2046.13 206.941L1992.28 258.387Z" fill="#CC2330"/>
<path d="M1929.62 260.725L1975.23 310.36L1970.74 244.356L1929.62 260.725Z" fill="#CC2330"/>
<path d="M1832.69 259.556L1874.6 291.653L1874.79 203.433L1832.69 259.556Z" fill="#CC2330"/>
<path d="M1820.94 252.541L1839.16 404.079H1814.7L1867.36 641.102H1706.29L1763.15 358.709L1732.82 335.555L1820.94 252.541Z" fill="#CC2330"/>
<path d="M1546.8 369.463L1634.16 404.079L1632.96 313.34L1546.8 369.463Z" fill="#CC2330"/>
<path d="M1439.1 433.77L1527.68 486.556L1522.32 361.278L1439.1 433.77Z" fill="#CC2330"/>
<path d="M1236.43 372.97L1289.16 417.109L1287.34 347.248L1236.43 372.97Z" fill="#CC2330"/>
<path d="M1098.38 286.448L1141.06 328.89L1127.75 277.094L1098.38 286.448Z" fill="#CC2330"/>
<path d="M1041.59 227.987V388.052L1022.82 382.062L1033.93 464.805L1005.41 475.919L1033.93 638.631L879.402 584.171L973.543 366.707L896.689 293.464L1041.59 227.987Z" fill="#CC2330"/>
<path d="M719.475 292.294L787.33 347.018L794.333 287.989H808.494L808.525 233.016L719.475 292.294Z" fill="#CC2330"/>
<path d="M589.257 270.079L650.934 326.317L643.342 277.146L652.832 283.19L640.169 231.495L589.257 270.079Z" fill="#CC2330"/>
<path d="M455.122 340.232L551.534 408.621V344.69L564.056 353.411L560.926 305.808L571.57 312.164L572.612 254.879L455.122 340.232Z" fill="#CC2330"/>
<path d="M346.444 309.833L379.993 353.411L383.649 289.956L346.444 309.833Z" fill="#CC2330"/>
<path d="M228.954 208.11L256.434 237.968L251.473 188.234L228.954 208.11Z" fill="#CC2330"/>
<path d="M52.7191 227.987L57.3851 268.438L42.8211 271.015L57.3851 308.377L42.8211 305.156L61.7011 377.303L0.732056 337.036V284.11L52.7191 227.987Z" fill="#CC2330"/>
<path d="M190.77 169.526L182.531 229.143H162.033L167.966 290.979L146.39 276.812L171.742 337.036L79.1541 249.033L190.77 169.526Z" fill="#CC2330"/>
<path d="M223.649 332.831L262.128 340.447L250.161 302.03L223.649 332.831Z" fill="#6B0228"/>
<path d="M1597.73 150.138L1634.16 185.446L1628.88 135.255L1597.73 150.138Z" fill="#ED5D45"/>
</svg>
