<svg width="818" height="268" viewBox="0 0 818 268" fill="none" xmlns="http://www.w3.org/2000/svg">
<g opacity="0.4">
<path d="M812.889 248.383C746.536 226.655 670.262 239.344 600.783 223.57C618.488 209.179 611.184 177.708 591.715 165.813C572.246 153.917 546.985 157.171 525.665 165.296C530.172 134.966 499.47 107.765 468.811 107.242C438.152 106.719 410.308 126.032 390.411 149.363C387.032 86.098 335.931 32.459 276.316 11.011C255.22 3.42097 232.707 -0.877027 210.343 0.704973C164.724 3.93297 122.828 32.258 98.02 70.678C73.212 109.098 64.469 156.501 68.139 202.087C57.6 191.549 41.614 186.24 27.166 189.897C12.718 193.554 0.792006 206.766 0.0660056 221.652C-0.659994 236.539 17.728 265.88 32.551 267.433C32.551 267.433 548.519 270.253 811.102 261.319C818.526 261.065 819.948 250.694 812.889 248.383Z" fill="white"/>
</g>
</svg>
