<svg width="596" height="192" viewBox="0 0 596 192" fill="none" xmlns="http://www.w3.org/2000/svg">
<g opacity="0.4">
<path d="M581.974 180.418C549.703 176.81 517.432 173.202 485.16 169.594C482.022 152.473 465.956 139.95 448.971 136.145C431.986 132.34 414.247 135.662 397.419 140.11C398.696 129.283 389.36 119.299 378.759 116.756C368.158 114.213 356.982 117.533 347.229 122.405C346.39 79.777 335.437 31.763 298.638 10.227C265.105 -9.397 220.246 1.07901 190.392 25.945C160.538 50.811 142.878 87.171 128.684 123.339C121.285 113.905 107.971 109.574 96.438 112.851C84.905 116.128 75.857 126.812 74.524 138.727C62.841 130.67 48.801 125.203 34.658 126.368C20.514 127.533 6.54395 136.367 1.96995 149.801C-2.60505 163.235 4.71699 180.334 18.416 184.04L594.488 191.63C597.457 185.704 588.561 181.155 581.974 180.418Z" fill="white"/>
</g>
</svg>
