<svg width="108" height="292" viewBox="0 0 108 292" fill="none" xmlns="http://www.w3.org/2000/svg">
<path d="M27.6709 65.8816L2.46619 290.935L6.44139 291.38L31.6461 66.3268L27.6709 65.8816Z" fill="#2F0C29"/>
<path d="M79.7032 65.9744L75.729 66.4203L100.979 291.473L104.953 291.027L79.7032 65.9744Z" fill="#2F0C29"/>
<path d="M101.23 278.618H6.10597C5.25297 278.618 4.49398 278.077 4.21498 277.271C3.93698 276.464 4.19998 275.571 4.87098 275.044L50.325 239.393L12.538 209.875C12.073 209.512 11.792 208.963 11.77 208.374C11.748 207.785 11.987 207.216 12.423 206.819L51.584 171.2L20.058 141.448C19.283 140.718 19.2171 139.507 19.9091 138.696L50.672 102.616L27.385 74.4399L30.468 71.891L53.307 99.525L76.888 71.868L79.931 74.464L55.8941 102.656L87.721 141.164C88.401 141.987 88.315 143.199 87.525 143.918L57.47 171.254L94.91 206.587C95.333 206.986 95.561 207.551 95.535 208.132C95.509 208.714 95.229 209.255 94.771 209.614L56.814 239.385L102.46 275.04C103.133 275.565 103.398 276.46 103.119 277.268C102.844 278.076 102.084 278.618 101.23 278.618ZM11.897 274.618H95.4201L53.573 241.93L11.897 274.618ZM16.87 208.184L53.569 236.85L90.476 207.903L54.5031 173.955L16.87 208.184ZM24.188 139.846L54.554 168.502L83.424 142.243L53.261 105.747L24.188 139.846Z" fill="#2F0C29"/>
<path d="M86.1801 140.439H21.432V144.439H86.1801V140.439Z" fill="#2F0C29"/>
<path d="M93.538 206.042H13.77V210.042H93.538V206.042Z" fill="#2F0C29"/>
<path d="M98.249 65.5279H9.48303V74.8929H98.249V65.5279Z" fill="#2F0C29"/>
<path d="M106.074 51.936H1.65698C1.06498 51.936 0.584961 51.456 0.584961 50.864C0.584961 50.272 1.06498 49.7919 1.65698 49.7919H106.074C106.666 49.7919 107.146 50.272 107.146 50.864C107.146 51.456 106.666 51.936 106.074 51.936Z" fill="#2F0C29"/>
<path d="M106.074 66.5989H1.65698C1.06498 66.5989 0.584961 66.1189 0.584961 65.5269C0.584961 64.9349 1.06498 64.4549 1.65698 64.4549H106.074C106.666 64.4549 107.146 64.9349 107.146 65.5269C107.146 66.1199 106.666 66.5989 106.074 66.5989Z" fill="#2F0C29"/>
<path d="M86.157 50.864H85.157V64.456H86.157V50.864Z" fill="#2F0C29"/>
<path d="M91.6949 50.864H90.6949V64.456H91.6949V50.864Z" fill="#2F0C29"/>
<path d="M97.233 50.864H96.233V64.456H97.233V50.864Z" fill="#2F0C29"/>
<path d="M102.771 50.864H101.771V64.456H102.771V50.864Z" fill="#2F0C29"/>
<path d="M3.09595 50.864H2.07996V64.456H3.09595V50.864Z" fill="#2F0C29"/>
<path d="M8.81006 50.864H7.79395V64.456H8.81006V50.864Z" fill="#2F0C29"/>
<path d="M14.524 50.864H13.5081V64.456H14.524V50.864Z" fill="#2F0C29"/>
<path d="M20.238 50.864H19.222V64.456H20.238V50.864Z" fill="#2F0C29"/>
<path d="M25.953 50.864H24.937V64.456H25.953V50.864Z" fill="#2F0C29"/>
<path d="M31.666 50.864H30.65V64.456H31.666V50.864Z" fill="#2F0C29"/>
<path d="M37.38 50.864H36.364V64.456H37.38V50.864Z" fill="#2F0C29"/>
<path d="M43.095 50.864H42.079V64.456H43.095V50.864Z" fill="#2F0C29"/>
<path d="M48.808 50.864H47.792V64.456H48.808V50.864Z" fill="#2F0C29"/>
<path d="M54.522 50.864H53.506V64.456H54.522V50.864Z" fill="#2F0C29"/>
<path d="M60.236 50.864H59.22V64.456H60.236V50.864Z" fill="#2F0C29"/>
<path d="M65.951 50.864H64.9351V64.456H65.951V50.864Z" fill="#2F0C29"/>
<path d="M71.6639 50.864H70.6479V64.456H71.6639V50.864Z" fill="#2F0C29"/>
<path d="M77.3781 50.864H76.3621V64.456H77.3781V50.864Z" fill="#2F0C29"/>
<path d="M83.092 50.864H82.076V64.456H83.092V50.864Z" fill="#2F0C29"/>
<path d="M88.853 50.909H87.837V64.5009H88.853V50.909Z" fill="#2F0C29"/>
<path d="M94.567 50.909H93.551V64.5009H94.567V50.909Z" fill="#2F0C29"/>
<path d="M100.281 50.909H99.265V64.5009H100.281V50.909Z" fill="#2F0C29"/>
<path d="M105.995 50.909H104.979V64.5009H105.995V50.909Z" fill="#2F0C29"/>
<path d="M14.231 30.0519V64.4999H93.1071V30.0519H14.231ZM40.631 56.045H17.088V37.7339H40.631V56.045ZM65.4399 56.045H41.897V37.7339H65.4399V56.045ZM90.249 56.045H66.7061V37.7339H90.249V56.045Z" fill="#2F0C29"/>
<path d="M55.288 0.307922L5.08899 31.124H105.486L55.288 0.307922Z" fill="#2F0C29"/>
</svg>
